<svg width="37" height="37" viewBox="0 0 37 37" fill="none" xmlns="http://www.w3.org/2000/svg">
<rect x="0.234375" y="0.974808" width="36" height="36" rx="8" fill="white"/>
<path d="M19.2611 31.3811V25.589V19.8839L22.3466 19.442L22.4527 18.3874L19.2611 15.5236V10.9505C19.2611 10.9505 23.7533 10.5087 25.8003 7.00626C25.8003 7.00626 29.8114 9.12511 30.3853 12.3179C30.9593 15.5075 31.0389 22.6477 31.0389 22.6477C31.0389 22.6477 29.7284 27.8884 28.4179 28.8753C27.1074 29.8621 23.6073 32.9775 19.2578 32.7486V31.3811H19.2611Z" fill="#ACE2CC"/>
<path d="M20.0533 4.53956L19.9405 4.53633L19.8742 4.59438C19.4396 4.99429 17.8139 6.25851 15.747 4.91367L15.0635 5.90375C15.966 6.4907 16.8352 6.71324 17.6215 6.71324C18.7594 6.71324 19.7282 6.24883 20.3785 5.74895C21.0121 5.77798 21.6326 5.8586 22.2331 5.99083C21.6226 6.63906 20.3785 7.713 18.5637 8.04518C16.6693 8.39671 14.6223 7.83555 12.4857 6.39073L11.7857 7.37115C13.7265 8.67729 15.6242 9.3352 17.449 9.3352C17.9002 9.3352 18.348 9.2965 18.7893 9.21587C21.4235 8.73534 23.0227 6.98091 23.517 6.36815C24.091 6.57456 24.6384 6.82289 25.1626 7.11959C24.2137 8.26449 18.8059 13.9535 9.4633 7.88393L8.77986 8.87724C12.1208 11.0445 15.0304 11.8056 17.4689 11.8056C22.5317 11.8056 25.5607 8.53216 26.1844 7.78073C28.7556 9.65448 30.4311 12.6312 30.4311 15.9917V21.9548C30.4311 27.4148 24.7943 31.8944 19.2538 32.204V30.298H18.64C13.5341 30.298 9.31069 28.105 9.31069 21.9548V20.6196H8.69692C7.2305 20.6196 6.03614 19.4586 6.03614 18.0331V17.7913C6.03614 16.3658 7.2305 15.2048 8.69692 15.2048V14.0115C6.55369 14.0115 4.80859 15.7079 4.80859 17.7913V18.0331C4.80859 19.9166 6.22856 21.4775 8.08314 21.7645V21.9548C8.08314 27.5793 11.215 31.272 18.0262 31.4816V33.4134H18.64C25.1393 33.4134 31.6586 28.2727 31.6586 21.9548V15.9917C31.6619 9.72866 26.4697 4.63309 20.0533 4.53956Z" fill="#096C76"/>
<path d="M21.3798 19.3041H20.1589C19.6679 19.3041 19.2665 19.6911 19.2665 20.1684V22.1518C18.4271 22.6711 16.6754 23.2935 14.1738 21.8035C15.4445 25.5252 18.7456 24.4029 19.6181 24.0288C19.7608 23.9675 19.9068 23.9675 20.0494 24.0288C20.922 24.4029 24.2231 25.5252 25.4937 21.8035C23.0851 23.2355 21.3666 22.713 20.494 22.2099V20.4974H21.3798C22.0898 20.4974 22.7102 20.1039 22.9989 19.4751C23.2875 18.8429 23.1714 18.1334 22.6969 17.6207L22.4149 17.3175V16.837C22.4149 16.3468 22.8263 15.9469 23.3306 15.9469C23.8349 15.9469 24.2463 16.3468 24.2463 16.837V17.3562H25.4738V16.837C25.4738 15.6889 24.5117 14.7536 23.3306 14.7536C22.4017 14.7536 21.6187 15.3341 21.3201 16.1371L20.4874 15.2373V12.9282H19.2598V15.3631C19.2598 15.5792 19.3428 15.7856 19.4887 15.9436L21.7813 18.4205C22.0002 18.6591 21.9073 18.9204 21.8742 18.9945C21.8443 19.0623 21.7083 19.3041 21.3798 19.3041Z" fill="#096C76"/>
<path d="M14.9434 14.7513C13.7623 14.7513 12.7969 15.6865 12.7969 16.8346V17.3539H14.0244V16.8346C14.0244 16.3444 14.4358 15.9445 14.9434 15.9445C15.4477 15.9445 15.8591 16.3444 15.8591 16.8346V17.3539H17.0866V16.8346C17.0866 15.6865 16.1245 14.7513 14.9434 14.7513Z" fill="#096C76"/>
</svg>
